<svg xmlns="http://www.w3.org/2000/svg" width="16" height="16" viewBox="0 0 16 16"><rect id="frame" width="16" height="16" fill="none"/><g fill="none" fill-rule="evenodd"><rect width="10.4" height="10.4" x="2.8" y="2.8" fill="#F4AF3D" fill-opacity=".6" rx="1" transform="rotate(45 8 8)"/><path fill="#231F20" fill-opacity=".7" d="M10 9.283c-.47.459-.972.695-1.9.717-1.039.022-2.1-.72-2.1-2 0-1.288.971-2 2.1-2 .848 0 1.448.185 1.8.554l.616-.717C9.83 5.27 9.288 5 8.098 5 6.34 5 5 6.358 5 8c0 1.682 1.364 3 3.002 3 1.29 0 2.021-.407 2.614-1.019L10 9.283z"/></g></svg>